/* XPM */
static char *actor_xpm[] = {
/* width height num_colors chars_per_pixel */
"    15    15      256            2",
/* colors */
"`` c #ffffff",
"`. c #fefefe",
"`# c #c1c1c1",
"`a c #8c8c8c",
"`b c #a8a8a8",
"`c c #f1f1f1",
"`d c #b8b8b8",
"`e c #8dd1db",
"`f c #6f7d82",
"`g c #e4e4e4",
"`h c #c4c4c4",
"`i c #b9b9b9",
"`j c #8d8d8d",
"`k c #adf2f8",
"`l c #b8f9fc",
"`m c #f0f0f0",
"`n c #e5e5e5",
"`o c #929292",
"`p c #52526b",
"`q c #435053",
"`r c #242e30",
"`s c #62939c",
"`t c #b7fbff",
"`u c #a1e4ec",
"`v c #6e7077",
"`w c #bebebe",
"`x c #e8e8e8",
"`y c #fcfcfc",
"`z c #dfdfdf",
"`A c #8f8f8f",
"`B c #42484f",
"`C c #3a5a5f",
"`D c #4d6f78",
"`E c #70878b",
"`F c #94d9e4",
"`G c #8dd0da",
"`H c #81b6bf",
"`I c #5d7070",
"`J c #969696",
"`K c #aeaeae",
"`L c #b4b4b4",
"`M c #efefef",
"`N c #f4f4f4",
"`O c #b7b7b7",
"`P c #838383",
"`Q c #558186",
"`R c #638f94",
"`S c #92d7e2",
"`T c #97dee9",
"`U c #9be3ee",
"`V c #98e0eb",
"`W c #8bc7cd",
"`X c #81afb4",
"`Y c #686872",
"`Z c #dadada",
"`0 c #f3f3f3",
"`1 c #bcbcbc",
"`2 c #63979f",
"`3 c #95dbe6",
"`4 c #a7f0fb",
"`5 c #a5eef9",
"`6 c #689ba3",
"`7 c #808080",
"`8 c #aaaaaa",
".` c #dddddd",
".. c #f5f5f5",
".# c #fdfdfd",
".a c #c0c0c0",
".b c #60939a",
".c c #91d5e0",
".d c #80bac5",
".e c #b2f5f9",
".f c #51a3aa",
".g c #bdbdbd",
".h c #eaeaea",
".i c #44676c",
".j c #82c1ca",
".k c #80a2ac",
".l c #b9fdff",
".m c #9de1e6",
".n c #f6f6f6",
".o c #c5c5c5",
".p c #375256",
".q c #5e8c93",
".r c #81b3bc",
".s c #9fe4eb",
".t c #bcfbfd",
".u c #f7f7f7",
".v c #979797",
".w c #568187",
".x c #30525d",
".y c #656772",
".z c #7a8084",
".A c #c8ffff",
".B c #ededed",
".C c #697272",
".D c #6fa6ae",
".E c #7e8081",
".F c #b0b0b0",
".G c #acecf2",
".H c #707272",
".I c #63767a",
".J c #649ca4",
".K c #9e9e9e",
".L c #e0e0e0",
".M c #838386",
".N c #a8eaf0",
".O c #a7a7a7",
".P c #f8f8f8",
".Q c #eeeeee",
".R c #666674",
".S c #d5d5d5",
".T c #fafafa",
".U c #9de2ea",
".V c #8a8a8a",
".W c #e1e1e1",
".X c #c2c2c2",
".Y c #000000",
".Z c #000000",
".0 c #000000",
".1 c #000000",
".2 c #000000",
".3 c #000000",
".4 c #000000",
".5 c #000000",
".6 c #000000",
".7 c #000000",
".8 c #000000",
"#` c #000000",
"#. c #000000",
"## c #000000",
"#a c #000000",
"#b c #000000",
"#c c #000000",
"#d c #000000",
"#e c #000000",
"#f c #000000",
"#g c #000000",
"#h c #000000",
"#i c #000000",
"#j c #000000",
"#k c #000000",
"#l c #000000",
"#m c #000000",
"#n c #000000",
"#o c #000000",
"#p c #000000",
"#q c #000000",
"#r c #000000",
"#s c #000000",
"#t c #000000",
"#u c #000000",
"#v c #000000",
"#w c #000000",
"#x c #000000",
"#y c #000000",
"#z c #000000",
"#A c #000000",
"#B c #000000",
"#C c #000000",
"#D c #000000",
"#E c #000000",
"#F c #000000",
"#G c #000000",
"#H c #000000",
"#I c #000000",
"#J c #000000",
"#K c #000000",
"#L c #000000",
"#M c #000000",
"#N c #000000",
"#O c #000000",
"#P c #000000",
"#Q c #000000",
"#R c #000000",
"#S c #000000",
"#T c #000000",
"#U c #000000",
"#V c #000000",
"#W c #000000",
"#X c #000000",
"#Y c #000000",
"#Z c #000000",
"#0 c #000000",
"#1 c #000000",
"#2 c #000000",
"#3 c #000000",
"#4 c #000000",
"#5 c #000000",
"#6 c #000000",
"#7 c #000000",
"#8 c #000000",
"a` c #000000",
"a. c #000000",
"a# c #000000",
"aa c #000000",
"ab c #000000",
"ac c #000000",
"ad c #000000",
"ae c #000000",
"af c #000000",
"ag c #000000",
"ah c #000000",
"ai c #000000",
"aj c #000000",
"ak c #000000",
"al c #000000",
"am c #000000",
"an c #000000",
"ao c #000000",
"ap c #000000",
"aq c #000000",
"ar c #000000",
"as c #000000",
"at c #000000",
"au c #000000",
"av c #000000",
"aw c #000000",
"ax c #000000",
"ay c #000000",
"az c #000000",
"aA c #000000",
"aB c #000000",
"aC c #000000",
"aD c #000000",
"aE c #000000",
"aF c #000000",
"aG c #000000",
"aH c #000000",
"aI c #000000",
"aJ c #000000",
"aK c #000000",
"aL c #000000",
"aM c #000000",
"aN c #000000",
"aO c #000000",
"aP c #000000",
"aQ c #000000",
"aR c #000000",
"aS c #000000",
"aT c #000000",
"aU c #000000",
"aV c #000000",
"aW c #000000",
"aX c #000000",
"aY c #000000",
"aZ c #000000",
"a0 c #000000",
"a1 c #000000",
"a2 c #000000",
"a3 c #000000",
"a4 c #000000",
"a5 c #000000",
"a6 c #000000",
"a7 c #000000",
"a8 c #000000",
/* pixels */
"`````````.`#`a`b`c```.````````",
"`````````.`d`e`f`d````````````",
"`.```g`h`i`j`k`l`a`m`.````````",
"`n`o`p`q`r`s`t`u`v`w`x```y`.`.",
"`z`A`B`C`D`E`F`G`H`I`J`K`L`M``",
"`.`N`O`P`Q`R`S`T`U`V`W`X`Y`Z``",
"`````0`1`2`3`4`5`6`7`J`8.`..``",
"`.``.#.a.b.c.d.e.f.g`c```````.",
"```..h`h.i.j.k.l.m`L.n```````.",
"````.`.o.p.q.r.s.t`o.u```.````",
"`````z.v.w.x.y.z.A`j`n`.`````.",
"````.B.C.D.E.F`o.G.H.a.#`````.",
"````.B.I.J.K.h.L.M.N.O.P`````.",
"````.Q`P.R.S``.T`L.U.V`m`````.",
"````.n.W`x`y``.#.S`d.X`y```.``"
};
