/* XPM */
static char *actornode_xpm[] = {
/* width height num_colors chars_per_pixel */
"    15    15      256            2",
/* colors */
"`` c #f7f7f7",
"`. c #d5d5d5",
"`# c #e0e0e0",
"`a c #fcfcfc",
"`b c #ffffff",
"`c c #8f8f8f",
"`d c #8181f6",
"`e c #6262e3",
"`f c #a8a8a8",
"`g c #fbfbfb",
"`h c #5a5ae8",
"`i c #e8e9ff",
"`j c #a9aaff",
"`k c #3038a0",
"`l c #cecece",
"`m c #53538a",
"`n c #8381fa",
"`o c #6081f0",
"`p c #81365f",
"`q c #8d484b",
"`r c #bfbfbf",
"`s c #cbcbcb",
"`t c #676772",
"`u c #636372",
"`v c #8d8d8d",
"`w c #776d73",
"`x c #f10b0b",
"`y c #7a7a7a",
"`z c #d9d9d9",
"`A c #fdfdfd",
"`B c #eeeeee",
"`C c #e5e5e5",
"`D c #f3f3f3",
"`E c #efefef",
"`F c #ababab",
"`G c #8a8a8a",
"`H c #b0b0b0",
"`I c #f1f1f1",
"`J c #979797",
"`K c #818184",
"`L c #bbbbbb",
"`M c #fafafa",
"`N c #fefefe",
"`O c #e9e9e9",
"`P c #74747c",
"`Q c #8f90ff",
"`R c #c3c3ff",
"`S c #5555e3",
"`T c #c5c5c5",
"`U c #a1a1a1",
"`V c #814488",
"`W c #8596ff",
"`X c #c3c2ff",
"`Y c #5d5de6",
"`Z c #b5b5b5",
"`0 c #dedede",
"`1 c #7c757c",
"`2 c #ff2c28",
"`3 c #6a5163",
"`4 c #335387",
"`5 c #4644bc",
"`6 c #707078",
"`7 c #e8e8e8",
"`8 c #aeaeae",
".` c #832e32",
".. c #868686",
".# c #c6c6c6",
".a c #e7e7e7",
".b c #c8c8c8",
".c c #ededed",
".d c #e4e4e4",
".e c #9e9e9e",
".f c #9c9c9c",
".g c #a7a7a7",
".h c #f9f9f9",
".i c #5d5d70",
".j c #9494ff",
".k c #8181f8",
".l c #f6f6f6",
".m c #6161ec",
".n c #e9e9ff",
".o c #a1a1ff",
".p c #333399",
".q c #d7d7d7",
".r c #686872",
".s c #6767ed",
".t c #5454ce",
".u c #8b8b8b",
".v c #f2f2f2",
".w c #b1b1b1",
".x c #000000",
".y c #000000",
".z c #000000",
".A c #000000",
".B c #000000",
".C c #000000",
".D c #000000",
".E c #000000",
".F c #000000",
".G c #000000",
".H c #000000",
".I c #000000",
".J c #000000",
".K c #000000",
".L c #000000",
".M c #000000",
".N c #000000",
".O c #000000",
".P c #000000",
".Q c #000000",
".R c #000000",
".S c #000000",
".T c #000000",
".U c #000000",
".V c #000000",
".W c #000000",
".X c #000000",
".Y c #000000",
".Z c #000000",
".0 c #000000",
".1 c #000000",
".2 c #000000",
".3 c #000000",
".4 c #000000",
".5 c #000000",
".6 c #000000",
".7 c #000000",
".8 c #000000",
"#` c #000000",
"#. c #000000",
"## c #000000",
"#a c #000000",
"#b c #000000",
"#c c #000000",
"#d c #000000",
"#e c #000000",
"#f c #000000",
"#g c #000000",
"#h c #000000",
"#i c #000000",
"#j c #000000",
"#k c #000000",
"#l c #000000",
"#m c #000000",
"#n c #000000",
"#o c #000000",
"#p c #000000",
"#q c #000000",
"#r c #000000",
"#s c #000000",
"#t c #000000",
"#u c #000000",
"#v c #000000",
"#w c #000000",
"#x c #000000",
"#y c #000000",
"#z c #000000",
"#A c #000000",
"#B c #000000",
"#C c #000000",
"#D c #000000",
"#E c #000000",
"#F c #000000",
"#G c #000000",
"#H c #000000",
"#I c #000000",
"#J c #000000",
"#K c #000000",
"#L c #000000",
"#M c #000000",
"#N c #000000",
"#O c #000000",
"#P c #000000",
"#Q c #000000",
"#R c #000000",
"#S c #000000",
"#T c #000000",
"#U c #000000",
"#V c #000000",
"#W c #000000",
"#X c #000000",
"#Y c #000000",
"#Z c #000000",
"#0 c #000000",
"#1 c #000000",
"#2 c #000000",
"#3 c #000000",
"#4 c #000000",
"#5 c #000000",
"#6 c #000000",
"#7 c #000000",
"#8 c #000000",
"a` c #000000",
"a. c #000000",
"a# c #000000",
"aa c #000000",
"ab c #000000",
"ac c #000000",
"ad c #000000",
"ae c #000000",
"af c #000000",
"ag c #000000",
"ah c #000000",
"ai c #000000",
"aj c #000000",
"ak c #000000",
"al c #000000",
"am c #000000",
"an c #000000",
"ao c #000000",
"ap c #000000",
"aq c #000000",
"ar c #000000",
"as c #000000",
"at c #000000",
"au c #000000",
"av c #000000",
"aw c #000000",
"ax c #000000",
"ay c #000000",
"az c #000000",
"aA c #000000",
"aB c #000000",
"aC c #000000",
"aD c #000000",
"aE c #000000",
"aF c #000000",
"aG c #000000",
"aH c #000000",
"aI c #000000",
"aJ c #000000",
"aK c #000000",
"aL c #000000",
"aM c #000000",
"aN c #000000",
"aO c #000000",
"aP c #000000",
"aQ c #000000",
"aR c #000000",
"aS c #000000",
"aT c #000000",
"aU c #000000",
"aV c #000000",
"aW c #000000",
"aX c #000000",
"aY c #000000",
"aZ c #000000",
"a0 c #000000",
"a1 c #000000",
"a2 c #000000",
"a3 c #000000",
"a4 c #000000",
"a5 c #000000",
"a6 c #000000",
"a7 c #000000",
"a8 c #000000",
/* pixels */
"```.`#`a`b`b`b`b`b`b`b`b`b`b`b",
"`c`d`e`f`g`b`b`b`b`b`b`b`b`b`b",
"`h`i`j`k`l`b`b`b`b`b`b`b`b`b`b",
"`m`n`o`p`q`r```b`b`b`b`b`b`b`b",
"`s`t`u`v`w`x`y`z`A`b`b`A`g`b`b",
"`b`B`C`D`E`.`F`G`H`I`C`J`K`L`M",
"`b`b`b`b`b`b`N```O`.`P`Q`R`S`T",
"`b`b`b`b`b`b`b`b```U`V`W`X`Y`Z",
"`b`b`b`b`b`b`b`0`1`2`3`4`5`6`7",
"`b`N`N`b`b```8.`...#.a`z.b.c`b",
".d.e.f`#.c.g`f`#.h`b`b`b`b`b`b",
".i.j.k.i`s.l`N`b`b`b`b`b`b`b`b",
".m.n.o.p.q`b`b`b`b`b`b`b`b`b`b",
".r.s.t.u.v`b`b`b`b`b`b`b`b`b`b",
".a`f.w`E`b`b`b`b`b`b`b`b`b`b`b"
};
