/* XPM */
static char *checked_xpm[] = {
/* width height num_colors chars_per_pixel */
"    15    15      256            2",
/* colors */
"`` c #ffffff",
"`. c #8e8f8f",
"`# c #f4f4f4",
"`a c #f8f8f8",
"`b c #f9f9f9",
"`c c #f6f6f6",
"`d c #aeb3b9",
"`e c #c9ccd0",
"`f c #9da7c0",
"`g c #7686ab",
"`h c #dcdfe4",
"`i c #f5f5f5",
"`j c #cbcfd5",
"`k c #ccd0d6",
"`l c #edeef1",
"`m c #56699d",
"`n c #435992",
"`o c #b9bfd0",
"`p c #cdd1d6",
"`q c #e0e2e6",
"`r c #afb8cf",
"`s c #445992",
"`t c #6476a5",
"`u c #e7e7e8",
"`v c #d5d9dd",
"`w c #dfe2e5",
"`x c #d5d8dc",
"`y c #f2f3f4",
"`z c #5d70a1",
"`A c #465b94",
"`B c #bcc3d6",
"`C c #dbdcdc",
"`D c #c5c9cd",
"`E c #c9cfdd",
"`F c #a3aec8",
"`G c #edeeee",
"`H c #bac1d5",
"`I c #485d96",
"`J c #6375a5",
"`K c #d5d5d6",
"`L c #dee0e1",
"`M c #6d7eaa",
"`N c #cfd4e2",
"`O c #6677a7",
"`P c #4a5f97",
"`Q c #b7bfd5",
"`R c #dcddde",
"`S c #cdcfd1",
"`T c #dee1e9",
"`U c #475c95",
"`V c #485e96",
"`W c #6072a4",
"`X c #f8f9fa",
"`Y c #e1e2e2",
"`Z c #c6c8ca",
"`0 c #eaecf0",
"`1 c #8b99bb",
"`2 c #495e97",
"`3 c #4b6098",
"`4 c #b0b9d1",
"`5 c #e6e6e6",
"`6 c #cacbcc",
"`7 c #dadadb",
"`8 c #dfe2e9",
".` c #8c99ba",
".. c #909dbd",
".# c #f2f3f6",
".a c #eceded",
".b c #ebebec",
".c c #e9e9ea",
".d c #000000",
".e c #000000",
".f c #000000",
".g c #000000",
".h c #000000",
".i c #000000",
".j c #000000",
".k c #000000",
".l c #000000",
".m c #000000",
".n c #000000",
".o c #000000",
".p c #000000",
".q c #000000",
".r c #000000",
".s c #000000",
".t c #000000",
".u c #000000",
".v c #000000",
".w c #000000",
".x c #000000",
".y c #000000",
".z c #000000",
".A c #000000",
".B c #000000",
".C c #000000",
".D c #000000",
".E c #000000",
".F c #000000",
".G c #000000",
".H c #000000",
".I c #000000",
".J c #000000",
".K c #000000",
".L c #000000",
".M c #000000",
".N c #000000",
".O c #000000",
".P c #000000",
".Q c #000000",
".R c #000000",
".S c #000000",
".T c #000000",
".U c #000000",
".V c #000000",
".W c #000000",
".X c #000000",
".Y c #000000",
".Z c #000000",
".0 c #000000",
".1 c #000000",
".2 c #000000",
".3 c #000000",
".4 c #000000",
".5 c #000000",
".6 c #000000",
".7 c #000000",
".8 c #000000",
"#` c #000000",
"#. c #000000",
"## c #000000",
"#a c #000000",
"#b c #000000",
"#c c #000000",
"#d c #000000",
"#e c #000000",
"#f c #000000",
"#g c #000000",
"#h c #000000",
"#i c #000000",
"#j c #000000",
"#k c #000000",
"#l c #000000",
"#m c #000000",
"#n c #000000",
"#o c #000000",
"#p c #000000",
"#q c #000000",
"#r c #000000",
"#s c #000000",
"#t c #000000",
"#u c #000000",
"#v c #000000",
"#w c #000000",
"#x c #000000",
"#y c #000000",
"#z c #000000",
"#A c #000000",
"#B c #000000",
"#C c #000000",
"#D c #000000",
"#E c #000000",
"#F c #000000",
"#G c #000000",
"#H c #000000",
"#I c #000000",
"#J c #000000",
"#K c #000000",
"#L c #000000",
"#M c #000000",
"#N c #000000",
"#O c #000000",
"#P c #000000",
"#Q c #000000",
"#R c #000000",
"#S c #000000",
"#T c #000000",
"#U c #000000",
"#V c #000000",
"#W c #000000",
"#X c #000000",
"#Y c #000000",
"#Z c #000000",
"#0 c #000000",
"#1 c #000000",
"#2 c #000000",
"#3 c #000000",
"#4 c #000000",
"#5 c #000000",
"#6 c #000000",
"#7 c #000000",
"#8 c #000000",
"a` c #000000",
"a. c #000000",
"a# c #000000",
"aa c #000000",
"ab c #000000",
"ac c #000000",
"ad c #000000",
"ae c #000000",
"af c #000000",
"ag c #000000",
"ah c #000000",
"ai c #000000",
"aj c #000000",
"ak c #000000",
"al c #000000",
"am c #000000",
"an c #000000",
"ao c #000000",
"ap c #000000",
"aq c #000000",
"ar c #000000",
"as c #000000",
"at c #000000",
"au c #000000",
"av c #000000",
"aw c #000000",
"ax c #000000",
"ay c #000000",
"az c #000000",
"aA c #000000",
"aB c #000000",
"aC c #000000",
"aD c #000000",
"aE c #000000",
"aF c #000000",
"aG c #000000",
"aH c #000000",
"aI c #000000",
"aJ c #000000",
"aK c #000000",
"aL c #000000",
"aM c #000000",
"aN c #000000",
"aO c #000000",
"aP c #000000",
"aQ c #000000",
"aR c #000000",
"aS c #000000",
"aT c #000000",
"aU c #000000",
"aV c #000000",
"aW c #000000",
"aX c #000000",
"aY c #000000",
"aZ c #000000",
"a0 c #000000",
"a1 c #000000",
"a2 c #000000",
"a3 c #000000",
"a4 c #000000",
"a5 c #000000",
"a6 c #000000",
"a7 c #000000",
"a8 c #000000",
/* pixels */
"``````````````````````````````",
"```.`.`.`.`.`.`.`.`.`.`.`.`.``",
"```.`#`#`#`#`#`#`#`a`b`c`#`.``",
"```.`#`d`d`d`d`d`e`f`g`h`i`.``",
"```.`#`d`j`j`j`k`l`m`n`o`c`.``",
"```.`#`d`j`j`p`q`r`s`t`u`#`.``",
"```.`#`d`v`w`x`y`z`A`B`C`#`.``",
"```.`#`D`E`F`G`H`I`J`a`K`#`.``",
"```.`#`L`M`A`N`O`P`Q`c`R`#`.``",
"```.`#`S`T`U`V`P`W`X`#`Y`#`.``",
"```.`#`Z`0`1`2`3`4`b`c`5`#`.``",
"```.`#`6`7`8.`...#.a.b.c`#`.``",
"```.`#`#`#`i`b`a`i`#`#`#`#`.``",
"```.`.`.`.`.`.`.`.`.`.`.`.`.``",
"``````````````````````````````"
};
