/* XPM */
static char *effectscenenode_xpm[] = {
/* width height num_colors chars_per_pixel */
"    15    15      256            2",
/* colors */
"`` c #ffffff",
"`. c #e0e0e0",
"`# c #7e7c7f",
"`a c #8b8b8b",
"`b c #d3d3d3",
"`c c #fefefe",
"`d c #929292",
"`e c #c85907",
"`f c #e88106",
"`g c #8a8a8a",
"`h c #f6f6f6",
"`i c #fcfcfc",
"`j c #705d5d",
"`k c #ffcc27",
"`l c #717171",
"`m c #dfdfdf",
"`n c #e8e8e8",
"`o c #ababab",
"`p c #9f9f9f",
"`q c #fbfbfb",
"`r c #f4f4f4",
"`s c #d4d4d4",
"`t c #888888",
"`u c #b9b9b9",
"`v c #f1f1f1",
"`w c #8d2c00",
"`x c #fbba24",
"`y c #a4682e",
"`z c #f7f7f7",
"`A c #fafafa",
"`B c #949494",
"`C c #a7a7a7",
"`D c #888889",
"`E c #515152",
"`F c #474747",
"`G c #524b34",
"`H c #a24300",
"`I c #c8c8c8",
"`J c #e2e2e2",
"`K c #bc4500",
"`L c #ffd82f",
"`M c #cd6904",
"`N c #0c104d",
"`O c #45221f",
"`P c #e0810a",
"`Q c #f3810b",
"`R c #ffb429",
"`S c #747474",
"`T c #aaaaaa",
"`U c #a4a4a4",
"`V c #ededed",
"`W c #a1a1a1",
"`X c #858585",
"`Y c #c15d00",
"`Z c #d2700b",
"`0 c #71432b",
"`1 c #152170",
"`2 c #813115",
"`3 c #ffa815",
"`4 c #feb21a",
"`5 c #f69319",
"`6 c #b35202",
"`7 c #d97008",
"`8 c #ffa924",
".` c #b1b1b1",
".. c #df6b00",
".# c #f58600",
".a c #726967",
".b c #b8b8b8",
".c c #191a51",
".d c #332e6f",
".e c #403f81",
".f c #8b4e40",
".g c #814745",
".h c #402342",
".i c #695c5e",
".j c #7c522e",
".k c #f1880a",
".l c #cecece",
".m c #c7c7c7",
".n c #e4e4e4",
".o c #121143",
".p c #2d254f",
".q c #883f19",
".r c #994d1d",
".s c #2a2663",
".t c #74747c",
".u c #eeeeee",
".v c #969696",
".w c #ec6e00",
".x c #330e18",
".y c #4b2b32",
".z c #fe9516",
".A c #ffc321",
".B c #6f6f6f",
".C c #dcdcdc",
".D c #e9e9e9",
".E c #fdfdfd",
".F c #ececec",
".G c #e1650a",
".H c #f5850b",
".I c #f0f0f0",
".J c #eaeaea",
".K c #d5d5d5",
".L c #7c747a",
".M c #f48101",
".N c #dbdbdb",
".O c #c6c6c6",
".P c #b2b2b2",
".Q c #898989",
".R c #dd8102",
".S c #cbcbcb",
".T c #746666",
".U c #f68400",
".V c #e1e1e1",
".W c #935b20",
".X c #ba8105",
".Y c #903c01",
".Z c #726a6a",
".0 c #f5f5f5",
".1 c #b4b4b4",
".2 c #686868",
".3 c #f7a51c",
".4 c #8b674e",
".5 c #bcbcbc",
".6 c #000000",
".7 c #000000",
".8 c #000000",
"#` c #000000",
"#. c #000000",
"## c #000000",
"#a c #000000",
"#b c #000000",
"#c c #000000",
"#d c #000000",
"#e c #000000",
"#f c #000000",
"#g c #000000",
"#h c #000000",
"#i c #000000",
"#j c #000000",
"#k c #000000",
"#l c #000000",
"#m c #000000",
"#n c #000000",
"#o c #000000",
"#p c #000000",
"#q c #000000",
"#r c #000000",
"#s c #000000",
"#t c #000000",
"#u c #000000",
"#v c #000000",
"#w c #000000",
"#x c #000000",
"#y c #000000",
"#z c #000000",
"#A c #000000",
"#B c #000000",
"#C c #000000",
"#D c #000000",
"#E c #000000",
"#F c #000000",
"#G c #000000",
"#H c #000000",
"#I c #000000",
"#J c #000000",
"#K c #000000",
"#L c #000000",
"#M c #000000",
"#N c #000000",
"#O c #000000",
"#P c #000000",
"#Q c #000000",
"#R c #000000",
"#S c #000000",
"#T c #000000",
"#U c #000000",
"#V c #000000",
"#W c #000000",
"#X c #000000",
"#Y c #000000",
"#Z c #000000",
"#0 c #000000",
"#1 c #000000",
"#2 c #000000",
"#3 c #000000",
"#4 c #000000",
"#5 c #000000",
"#6 c #000000",
"#7 c #000000",
"#8 c #000000",
"a` c #000000",
"a. c #000000",
"a# c #000000",
"aa c #000000",
"ab c #000000",
"ac c #000000",
"ad c #000000",
"ae c #000000",
"af c #000000",
"ag c #000000",
"ah c #000000",
"ai c #000000",
"aj c #000000",
"ak c #000000",
"al c #000000",
"am c #000000",
"an c #000000",
"ao c #000000",
"ap c #000000",
"aq c #000000",
"ar c #000000",
"as c #000000",
"at c #000000",
"au c #000000",
"av c #000000",
"aw c #000000",
"ax c #000000",
"ay c #000000",
"az c #000000",
"aA c #000000",
"aB c #000000",
"aC c #000000",
"aD c #000000",
"aE c #000000",
"aF c #000000",
"aG c #000000",
"aH c #000000",
"aI c #000000",
"aJ c #000000",
"aK c #000000",
"aL c #000000",
"aM c #000000",
"aN c #000000",
"aO c #000000",
"aP c #000000",
"aQ c #000000",
"aR c #000000",
"aS c #000000",
"aT c #000000",
"aU c #000000",
"aV c #000000",
"aW c #000000",
"aX c #000000",
"aY c #000000",
"aZ c #000000",
"a0 c #000000",
"a1 c #000000",
"a2 c #000000",
"a3 c #000000",
"a4 c #000000",
"a5 c #000000",
"a6 c #000000",
"a7 c #000000",
"a8 c #000000",
/* pixels */
"```````````.`#`a`b````````````",
"`````````c`d`e`f`g`c`c`h`i````",
"`````````i`j`k`l`m`n`o`l`p`i``",
"```````q`r`s`t`u`v`a`w`x`y`z``",
"`````A`B`l`C`D`E`F`G`H`j`I`c``",
"`c```J`K`L`M`N`O`P`Q`R`S`T`U`V",
"`W`C`X`Y`Z`0`1`2`3`4`5`6`7`8.`",
"...#.a.b`X.c.d.e.f.g.h.i.j.k.l",
".m.`.n``.`.o.p.q.r.s.t.u.v.w.n",
"`q`T`C`i`s.x.y.z.A.B.C```z.D.E",
".F.G.H.I`i.J.K.L.M.l```J.N````",
".E`m.n`c`c.O.P.Q.R.S`c.T.U.V``",
"````````.I.W.X.Y.Z.0``.O`W.0``",
"`````````i.1.2.3.4`z```c`c````",
"````````````.D`B.5`c``````````"
};
