/* XPM */
static char *EffectTool_xpm[] = {
/* width height num_colors chars_per_pixel */
"    32    32      256            2",
/* colors */
"`` c #000000",
"`. c #110101",
"`# c #0d0000",
"`a c #802222",
"`b c #ff9966",
"`c c #170101",
"`d c #280504",
"`e c #470606",
"`f c #b45e5e",
"`g c #c57879",
"`h c #070404",
"`i c #130909",
"`j c #d69896",
"`k c #1f0201",
"`l c #010000",
"`m c #070000",
"`n c #030000",
"`o c #903232",
"`p c #edcfd0",
"`q c #dca7a8",
"`r c #e5bbbb",
"`s c #ffffff",
"`t c #cd8787",
"`u c #bd6c6c",
"`v c #ac5252",
"`w c #330000",
"`x c #580d0d",
"`y c #a64949",
"`z c #f5e3e4",
"`A c #721919",
"`B c #66110f",
"`C c #9f4242",
"`D c #4c2a29",
"`E c #892e2e",
"`F c #993b3b",
"`G c #993333",
"`H c #862828",
"`I c #7a1e1e",
"`J c #6c1615",
"`K c #291b1b",
"`L c #ecbeb4",
"`M c #efb7a6",
"`N c #99322e",
"`O c #cc6666",
"`P c #dfdfdf",
"`Q c #000000",
"`R c #000000",
"`S c #000000",
"`T c #000000",
"`U c #000000",
"`V c #000000",
"`W c #000000",
"`X c #000000",
"`Y c #000000",
"`Z c #000000",
"`0 c #000000",
"`1 c #000000",
"`2 c #000000",
"`3 c #000000",
"`4 c #000000",
"`5 c #000000",
"`6 c #000000",
"`7 c #000000",
"`8 c #000000",
".` c #000000",
".. c #000000",
".# c #000000",
".a c #000000",
".b c #000000",
".c c #000000",
".d c #000000",
".e c #000000",
".f c #000000",
".g c #000000",
".h c #000000",
".i c #000000",
".j c #000000",
".k c #000000",
".l c #000000",
".m c #000000",
".n c #000000",
".o c #000000",
".p c #000000",
".q c #000000",
".r c #000000",
".s c #000000",
".t c #000000",
".u c #000000",
".v c #000000",
".w c #000000",
".x c #000000",
".y c #000000",
".z c #000000",
".A c #000000",
".B c #000000",
".C c #000000",
".D c #000000",
".E c #000000",
".F c #000000",
".G c #000000",
".H c #000000",
".I c #000000",
".J c #000000",
".K c #000000",
".L c #000000",
".M c #000000",
".N c #000000",
".O c #000000",
".P c #000000",
".Q c #000000",
".R c #000000",
".S c #000000",
".T c #000000",
".U c #000000",
".V c #000000",
".W c #000000",
".X c #000000",
".Y c #000000",
".Z c #000000",
".0 c #000000",
".1 c #000000",
".2 c #000000",
".3 c #000000",
".4 c #000000",
".5 c #000000",
".6 c #000000",
".7 c #000000",
".8 c #000000",
"#` c #000000",
"#. c #000000",
"## c #000000",
"#a c #000000",
"#b c #000000",
"#c c #000000",
"#d c #000000",
"#e c #000000",
"#f c #000000",
"#g c #000000",
"#h c #000000",
"#i c #000000",
"#j c #000000",
"#k c #000000",
"#l c #000000",
"#m c #000000",
"#n c #000000",
"#o c #000000",
"#p c #000000",
"#q c #000000",
"#r c #000000",
"#s c #000000",
"#t c #000000",
"#u c #000000",
"#v c #000000",
"#w c #000000",
"#x c #000000",
"#y c #000000",
"#z c #000000",
"#A c #000000",
"#B c #000000",
"#C c #000000",
"#D c #000000",
"#E c #000000",
"#F c #000000",
"#G c #000000",
"#H c #000000",
"#I c #000000",
"#J c #000000",
"#K c #000000",
"#L c #000000",
"#M c #000000",
"#N c #000000",
"#O c #000000",
"#P c #000000",
"#Q c #000000",
"#R c #000000",
"#S c #000000",
"#T c #000000",
"#U c #000000",
"#V c #000000",
"#W c #000000",
"#X c #000000",
"#Y c #000000",
"#Z c #000000",
"#0 c #000000",
"#1 c #000000",
"#2 c #000000",
"#3 c #000000",
"#4 c #000000",
"#5 c #000000",
"#6 c #000000",
"#7 c #000000",
"#8 c #000000",
"a` c #000000",
"a. c #000000",
"a# c #000000",
"aa c #000000",
"ab c #000000",
"ac c #000000",
"ad c #000000",
"ae c #000000",
"af c #000000",
"ag c #000000",
"ah c #000000",
"ai c #000000",
"aj c #000000",
"ak c #000000",
"al c #000000",
"am c #000000",
"an c #000000",
"ao c #000000",
"ap c #000000",
"aq c #000000",
"ar c #000000",
"as c #000000",
"at c #000000",
"au c #000000",
"av c #000000",
"aw c #000000",
"ax c #000000",
"ay c #000000",
"az c #000000",
"aA c #000000",
"aB c #000000",
"aC c #000000",
"aD c #000000",
"aE c #000000",
"aF c #000000",
"aG c #000000",
"aH c #000000",
"aI c #000000",
"aJ c #000000",
"aK c #000000",
"aL c #000000",
"aM c #000000",
"aN c #000000",
"aO c #000000",
"aP c #000000",
"aQ c #000000",
"aR c #000000",
"aS c #000000",
"aT c #000000",
"aU c #000000",
"aV c #000000",
"aW c #000000",
"aX c #000000",
"aY c #000000",
"aZ c #000000",
"a0 c #000000",
"a1 c #000000",
"a2 c #000000",
"a3 c #000000",
"a4 c #000000",
"a5 c #000000",
"a6 c #000000",
"a7 c #000000",
"a8 c #000000",
/* pixels */
"````````````````````````````````````````````````````````````````",
"````````````````````````````````````````````````````````````````",
"````````````````````````````````````````````````````````````````",
"`````````````````````````````.`.`````.`.`````#`a```b`b`b`b``````",
"`````````````````````````````c`c`````d`d`````e`f`````````b``````",
"`````````````````````````````````````````````e`g```b`b`b`b``````",
"```````````h`h```````````i`i`````````````````e`j`````````b``````",
"```````````h`i`k```l`m`````k`n`````````````d`o`p```b`b`b`b``````",
"`````````````.`.`m`.`k```#`l`l`````````#`o`j`q`r````````````````",
"`````````````````m`#```````````````````e`r`s`p`j`t`q`q`t`u`v````",
"```````````````````````````````````w`x`y`z`p`q`g`g`q`p`r`t`u````",
"```````````````m`#```````m`k`````A`j`q`r`s`r`j`t`r`r`p`p`j`u````",
"`````````````m`c`#```````l`#`B`C`r`z`r`z`p`q`t`t`r`p`r`j`g`f````",
"`````````````n`#```D`D`l```a`j`q`p`r`p`r`j`g`u`u`u`q`r`j`g`v````",
"`````````````n`````m`.`````E`p`p`q`r`z`t`f`f`v`y`v`u`g`u`f`v````",
"`````n`n`m`h`h`m`n```````m`v`p`r`j`j`t`f`v`F`E`E`G`C`F`y`v`F````",
"`````#`.`#`d`k`.`.`m`````H`r`t`u`f`v`f`y`o`a`I`I`I`I`H`F`F`H````",
"`````c`c`k`k`c`.`c`c```e`q`q`g`v`F`y`u`C`F`H`I`A`J`J`o`v`y`o````",
"`````m`k`d`c`m`m`k`#`d`u`z`j`g`f`y`C`o`F`f`o`a`A`x`x`I`v`y`o````",
"`````l`m`.`````k`c`e`t`r`t`f`g`u`v`o`A`I`C`o`a`A`B`e`w`x`J`x````",
"`````````n`K`m`.```y`p`g`u`y`v`y`o`A`J`H`E`E`I`J`x`e`c```n`n````",
"```````````E`d```J`j`g`u`v`F`H`A`x`e`x`A`e`e`e`e`w`#````````````",
"```````````x`d`e`L`M`y`N`a`a`A`e`.`#`#`n```n````````````````````",
"`````````````B`j`M`O`N`a`B`e`d`.````````````````````````````````",
"```````````````n`l```````l``````````````````````````````````````",
"`````````P`P`P```P`P`P```P`P`P```P`P`P`````P`P`````P`P`P````````",
"`````````P```````P```````P```````P```````P`````P`````P``````````",
"`````````P`P`````P`P`````P`P`````P`P`````P```````````P``````````",
"`````````P```````P```````P```````P```````P`````P`````P``````````",
"`````````P`P`P```P```````P```````P`P`P`````P`P```````P``````````",
"````````````````````````````````````````````````````````````````",
"````````````````````````````````````````````````````````````````"
};
