/* XPM */
static char *emitter_box_xpm[] = {
/* width height num_colors chars_per_pixel */
"    15    15      256            2",
/* colors */
"`` c #ffffff",
"`. c #f9f9f9",
"`# c #bcbcbc",
"`a c #929292",
"`b c #b9b9b9",
"`c c #dcdcdc",
"`d c #f2f2f2",
"`e c #fcfcfc",
"`f c #fbfbfb",
"`g c #d1d1d1",
"`h c #898989",
"`i c #6181b2",
"`j c #6d81bb",
"`k c #6481b4",
"`l c #5f70ac",
"`m c #717171",
"`n c #8f8f8f",
"`o c #b5b5b5",
"`p c #d3d3d3",
"`q c #e9e9e9",
"`r c #fafafa",
"`s c #fefefe",
"`t c #6e81bf",
"`u c #8186bd",
"`v c #8184bc",
"`w c #8187c0",
"`x c #8188c3",
"`y c #8188c4",
"`z c #8086c6",
"`A c #6c81c0",
"`B c #818dd4",
"`C c #404e81",
"`D c #cacaca",
"`E c #b1b1b1",
"`F c #465482",
"`G c #7185c3",
"`H c #8395d6",
"`I c #8191d1",
"`J c #818bc6",
"`K c #8189c3",
"`L c #8189c4",
"`M c #818ac5",
"`N c #818bc7",
"`O c #869bdf",
"`P c #6681a4",
"`Q c #1f253d",
"`R c #242b42",
"`S c #303548",
"`T c #454e6b",
"`U c #606e9b",
"`V c #818dca",
"`W c #8598da",
"`X c #8599dd",
"`Y c #8295d5",
"`Z c #818ecc",
"`0 c #8ba0e6",
"`1 c #64719f",
"`2 c #2f3549",
"`3 c #5f616b",
"`4 c #f0f0f0",
"`5 c #2c3657",
"`6 c #37415c",
"`7 c #323951",
"`8 c #2c3245",
".` c #353b52",
".. c #48506f",
".# c #5f6b97",
".a c #818cc6",
".b c #93a9f2",
".c c #6581a3",
".d c #33394d",
".e c #4a5782",
".f c #838386",
".g c #bbbbbb",
".h c #28314f",
".i c #38405c",
".j c #39425f",
".k c #3c4664",
".l c #3b4463",
".m c #353d58",
".n c #2f364c",
".o c #343a4f",
".p c #414962",
".q c #3a4057",
".r c #515d87",
".s c #414c81",
".t c #9c9c9c",
".u c #a7a7a7",
".v c #2e3652",
".w c #373e59",
".x c #37405c",
".y c #38405d",
".z c #3b4261",
".A c #3d4665",
".B c #3f496a",
".C c #414b6e",
".D c #292d3c",
".E c #4b5781",
".F c #4d5881",
".G c #39446b",
".H c #b8b8b8",
".I c #2d334e",
".J c #353c56",
".K c #363e59",
".L c #383f5c",
".M c #39415e",
".N c #3b4460",
".O c #3c4562",
".P c #3f4a6a",
".Q c #2f3448",
".R c #4b5681",
".S c #4d5681",
".T c #2c395f",
".U c #d2d2d2",
".V c #d4d4d4",
".W c #374d52",
".X c #363f5a",
".Y c #343c56",
".Z c #373f5b",
".0 c #3a4360",
".1 c #3f4868",
".2 c #2f3444",
".3 c #4b5381",
".4 c #485381",
".5 c #636572",
".6 c #f7f7f7",
".7 c #888888",
".8 c #1a233e",
"#` c #303954",
"#. c #38405b",
"## c #39405d",
"#a c #3c4565",
"#b c #2d3243",
"#c c #4c5781",
"#d c #2a3559",
"#e c #c8c8c8",
"#f c #676772",
"#g c #1f2741",
"#h c #303855",
"#i c #394260",
"#j c #2e3443",
"#k c #39476f",
"#l c #adadad",
"#m c #fdfdfd",
"#n c #f1f1f1",
"#o c #bdbdbd",
"#p c #75757c",
"#q c #2e3754",
"#r c #3a425f",
"#s c #292f44",
"#t c #838383",
"#u c #f6f6f6",
"#v c #cecece",
"#w c #858585",
"#x c #1d2540",
"#y c #5d5d5d",
"#z c #e3e3e3",
"#A c #cdcdcd",
"#B c #000000",
"#C c #000000",
"#D c #000000",
"#E c #000000",
"#F c #000000",
"#G c #000000",
"#H c #000000",
"#I c #000000",
"#J c #000000",
"#K c #000000",
"#L c #000000",
"#M c #000000",
"#N c #000000",
"#O c #000000",
"#P c #000000",
"#Q c #000000",
"#R c #000000",
"#S c #000000",
"#T c #000000",
"#U c #000000",
"#V c #000000",
"#W c #000000",
"#X c #000000",
"#Y c #000000",
"#Z c #000000",
"#0 c #000000",
"#1 c #000000",
"#2 c #000000",
"#3 c #000000",
"#4 c #000000",
"#5 c #000000",
"#6 c #000000",
"#7 c #000000",
"#8 c #000000",
"a` c #000000",
"a. c #000000",
"a# c #000000",
"aa c #000000",
"ab c #000000",
"ac c #000000",
"ad c #000000",
"ae c #000000",
"af c #000000",
"ag c #000000",
"ah c #000000",
"ai c #000000",
"aj c #000000",
"ak c #000000",
"al c #000000",
"am c #000000",
"an c #000000",
"ao c #000000",
"ap c #000000",
"aq c #000000",
"ar c #000000",
"as c #000000",
"at c #000000",
"au c #000000",
"av c #000000",
"aw c #000000",
"ax c #000000",
"ay c #000000",
"az c #000000",
"aA c #000000",
"aB c #000000",
"aC c #000000",
"aD c #000000",
"aE c #000000",
"aF c #000000",
"aG c #000000",
"aH c #000000",
"aI c #000000",
"aJ c #000000",
"aK c #000000",
"aL c #000000",
"aM c #000000",
"aN c #000000",
"aO c #000000",
"aP c #000000",
"aQ c #000000",
"aR c #000000",
"aS c #000000",
"aT c #000000",
"aU c #000000",
"aV c #000000",
"aW c #000000",
"aX c #000000",
"aY c #000000",
"aZ c #000000",
"a0 c #000000",
"a1 c #000000",
"a2 c #000000",
"a3 c #000000",
"a4 c #000000",
"a5 c #000000",
"a6 c #000000",
"a7 c #000000",
"a8 c #000000",
/* pixels */
"`````````.`#`a`b`c`d`e````````",
"`````f`g`h`i`j`k`l`m`n`o`p`q`r",
"`s`c`n`i`t`u`v`w`x`y`z`A`B`C`D",
"`E`F`G`H`I`J`K`L`M`N`M`O`P`Q`c",
"`a`R`S`T`U`V`W`X`Y`Z`0`1`2`3`4",
"`o`5`6`7`8.`...#.a.b.c.d.e.f`.",
".g.h.i.j.k.l.m.n.o.p.q.r.s.t``",
".u.v.w.x.y.z.A.B.C.D.E.F.G.H``",
"`E.I.J.K.L.M.N.O.P.Q.R.S.T.U``",
".V.W.X.Y.K.Z.M.0.1.2.3.4.5`4``",
".6.7.8#`.w.X#.###a#b#c#d#e````",
"```4.H#f#g#h#..i#i#j#k#l#m````",
"``````#n#o#p#g#q#r#s#t.6``````",
"``````````#u#v#w#x#y#z````````",
"```````````````r#A`g``````````"
};
