/* XPM */
static char *emitter_sphere_xpm[] = {
/* width height num_colors chars_per_pixel */
"    15    15      256            2",
/* colors */
"`` c #ffffff",
"`. c #f8f8f8",
"`# c #ececec",
"`a c #e8e8e8",
"`b c #ededed",
"`c c #fbfbfb",
"`d c #f2f2f2",
"`e c #b9b9b9",
"`f c #808081",
"`g c #5d5d70",
"`h c #525277",
"`i c #696e72",
"`j c #8a8a8a",
"`k c #c6c6c6",
"`l c #fafafa",
"`m c #e6e6e6",
"`n c #717171",
"`o c #54649c",
"`p c #8085c2",
"`q c #818ece",
"`r c #818fd1",
"`s c #8190d2",
"`t c #818ccd",
"`u c #5d6fad",
"`v c #8c8c8e",
"`w c #f0f0f0",
"`x c #747474",
"`y c #58679c",
"`z c #6f81b4",
"`A c #8189c1",
"`B c #879be0",
"`C c #8196db",
"`D c #818ecd",
"`E c #818fca",
"`F c #6180af",
"`G c #8f8f8f",
"`H c #fcfcfc",
"`I c #9f9f9f",
"`J c #3a466f",
"`K c #6380a2",
"`L c #6c81b0",
"`M c #7083c1",
"`N c #a3b3ec",
"`O c #eaf1ff",
"`P c #d1defe",
"`Q c #8295da",
"`R c #8188c2",
"`S c #8082ba",
"`T c #455487",
"`U c #c8c8c8",
"`V c #f3f3f3",
"`W c #424242",
"`X c #4d5981",
"`Y c #5c6b98",
"`Z c #6681a7",
"`0 c #6b81bb",
"`1 c #bdccf3",
"`2 c #fbffff",
"`3 c #8a9ee0",
"`4 c #6f81b9",
"`5 c #6a81ae",
"`6 c #566699",
"`7 c #8c8c8c",
"`8 c #e2e2e2",
".` c #111629",
".. c #475381",
".# c #55628d",
".a c #5f6d9e",
".b c #6681aa",
".c c #8190cc",
".d c #bbc7f5",
".e c #a9b7eb",
".f c #7183be",
".g c #6a81af",
".h c #6371a3",
".i c #556390",
".j c #0e111b",
".k c #3e4765",
".l c #4c5781",
".m c #56628d",
".n c #5d6b9b",
".o c #606ea0",
".p c #6271ac",
".q c #6280aa",
".r c #6481a5",
".s c #606f9f",
".t c #586692",
".u c #4a5781",
".v c #6d6d77",
".w c #22232c",
".x c #2d344c",
".y c #404a69",
".z c #4a5581",
".A c #515e88",
".B c #56638f",
".C c #586592",
".D c #596793",
".E c #596692",
".F c #54618a",
".G c #4b5781",
".H c #374162",
".I c #868686",
".J c #858585",
".K c #11141f",
".L c #31384f",
".M c #39425f",
".N c #424c6d",
".O c #475181",
".P c #4a5481",
".Q c #495381",
".R c #434d6f",
".S c #3d4863",
".T c #11162a",
".U c #c0c0c0",
".V c #fdfdfd",
".W c #c3c3c3",
".X c #2e2e2e",
".Y c #121520",
".Z c #272e42",
".0 c #313a51",
".1 c #373f5a",
".2 c #3a425f",
".3 c #37405b",
".4 c #323953",
".5 c #1a2031",
".6 c #7a7a7a",
".7 c #f7f7f7",
".8 c #fefefe",
"#` c #b1b1b1",
"#. c #2e2e33",
"## c #030509",
"#a c #141824",
"#b c #1c2130",
"#c c #1f2536",
"#d c #1e2434",
"#e c #1a1e2b",
"#f c #060812",
"#g c #6f6f6f",
"#h c #d5d5d5",
"#i c #e7e7e7",
"#j c #bcbcbc",
"#k c #595959",
"#l c #000002",
"#m c #010205",
"#n c #000003",
"#o c #666666",
"#p c #929292",
"#q c #d7d7d7",
"#r c #dedede",
"#s c #c9c9c9",
"#t c #b8b8b8",
"#u c #b4b4b4",
"#v c #d3d3d3",
"#w c #f5f5f5",
"#x c #000000",
"#y c #000000",
"#z c #000000",
"#A c #000000",
"#B c #000000",
"#C c #000000",
"#D c #000000",
"#E c #000000",
"#F c #000000",
"#G c #000000",
"#H c #000000",
"#I c #000000",
"#J c #000000",
"#K c #000000",
"#L c #000000",
"#M c #000000",
"#N c #000000",
"#O c #000000",
"#P c #000000",
"#Q c #000000",
"#R c #000000",
"#S c #000000",
"#T c #000000",
"#U c #000000",
"#V c #000000",
"#W c #000000",
"#X c #000000",
"#Y c #000000",
"#Z c #000000",
"#0 c #000000",
"#1 c #000000",
"#2 c #000000",
"#3 c #000000",
"#4 c #000000",
"#5 c #000000",
"#6 c #000000",
"#7 c #000000",
"#8 c #000000",
"a` c #000000",
"a. c #000000",
"a# c #000000",
"aa c #000000",
"ab c #000000",
"ac c #000000",
"ad c #000000",
"ae c #000000",
"af c #000000",
"ag c #000000",
"ah c #000000",
"ai c #000000",
"aj c #000000",
"ak c #000000",
"al c #000000",
"am c #000000",
"an c #000000",
"ao c #000000",
"ap c #000000",
"aq c #000000",
"ar c #000000",
"as c #000000",
"at c #000000",
"au c #000000",
"av c #000000",
"aw c #000000",
"ax c #000000",
"ay c #000000",
"az c #000000",
"aA c #000000",
"aB c #000000",
"aC c #000000",
"aD c #000000",
"aE c #000000",
"aF c #000000",
"aG c #000000",
"aH c #000000",
"aI c #000000",
"aJ c #000000",
"aK c #000000",
"aL c #000000",
"aM c #000000",
"aN c #000000",
"aO c #000000",
"aP c #000000",
"aQ c #000000",
"aR c #000000",
"aS c #000000",
"aT c #000000",
"aU c #000000",
"aV c #000000",
"aW c #000000",
"aX c #000000",
"aY c #000000",
"aZ c #000000",
"a0 c #000000",
"a1 c #000000",
"a2 c #000000",
"a3 c #000000",
"a4 c #000000",
"a5 c #000000",
"a6 c #000000",
"a7 c #000000",
"a8 c #000000",
/* pixels */
"```````````.`#`a`b`c``````````",
"```````d`e`f`g`h`i`j`k`l``````",
"`````m`n`o`p`q`r`s`t`u`v`d````",
"```w`x`y`z`A`q`B`C`D`E`F`G`H``",
"```I`J`K`L`M`N`O`P`Q`R`S`T`U``",
"`V`W`X`Y`Z`0`1```2`3`4`5`6`7`H",
"`8.`...#.a.b.c.d.e.f.g.h.i`x`d",
"`8.j.k.l.m.n.o.p.q.r.s.t.u.v`d",
"`w.w.x.y.z.A.B.C.D.E.F.G.H.I`l",
"`c.J.K.L.M.N.O.P.z.Q.R.S.T.U``",
".V.W.X.Y.Z.0.1.2.2.3.4.5.6.7``",
".8`##`#.###a#b#c#d#e#f#g#h````",
"```c#i#j.I#k#l#m#n#o#p#q`c````",
"`````H`w#r#s#t#u#j#v`#`H``````",
"``````.8`H`.#w#w.7`H.8````````"
};
