/* XPM */
static char *emitter_ring_xpm[] = {
/* width height num_colors chars_per_pixel */
"    15    15      256            2",
/* colors */
"`` c #ffffff",
"`. c #f7f7f7",
"`# c #dddddd",
"`a c #c1c1c1",
"`b c #b1b1b1",
"`c c #aeaeae",
"`d c #bcbcbc",
"`e c #d3d3d3",
"`f c #eeeeee",
"`g c #fefefe",
"`h c #fcfcfc",
"`i c #cecece",
"`j c #7a7a7e",
"`k c #4b5c90",
"`l c #8186bb",
"`m c #a9b3d3",
"`n c #98a6d0",
"`o c #5d6ba6",
"`p c #4d5c8f",
"`q c #52526b",
"`r c #ababad",
"`s c #f1f1f1",
"`t c #fdfdfd",
"`u c #a8a8a8",
"`v c #3f4c81",
"`w c #606fa4",
"`x c #6881ab",
"`y c #818dbc",
"`z c #8892b7",
"`A c #8182ab",
"`B c #5d6a99",
"`C c #54608a",
"`D c #56628e",
"`E c #4f5e92",
"`F c #78787f",
"`G c #e7e7e7",
"`H c #c4c4c4",
"`I c #323f6a",
"`J c #6371a3",
"`K c #606e9e",
"`L c #4b5782",
"`M c #252f4f",
"`N c #353f52",
"`O c #444862",
"`P c #414969",
"`Q c #323c59",
"`R c #3e4765",
"`S c #505b82",
"`T c #556497",
"`U c #74747c",
"`V c #f4f4f4",
"`W c #7a7a7a",
"`X c #53618e",
"`Y c #5e6c9c",
"`Z c #505d89",
"`0 c #e0e0e0",
"`1 c #c6c6c6",
"`2 c #888889",
"`3 c #323746",
"`4 c #3f4868",
"`5 c #5c6997",
"`6 c #4e5d94",
"`7 c #1c233a",
"`8 c #54618b",
".` c #5f6c9c",
".. c #435181",
".# c #e5e5e5",
".a c #444f81",
".b c #5f6d9c",
".c c #5b6a9f",
".d c #929292",
".e c #161b2d",
".f c #4b5581",
".g c #596692",
".h c #586898",
".i c #838386",
".j c #f0f0f0",
".k c #f2f2f2",
".l c #636363",
".m c #5c699a",
".n c #6581a5",
".o c #586799",
".p c #666666",
".q c #373f5d",
".r c #4e5981",
".s c #5c6897",
".t c #5d6b9d",
".u c #424993",
".v c #6f6f6f",
".w c #7a7a7b",
".x c #4d5c90",
".y c #7081b4",
".z c #6581a6",
".A c #414e81",
".B c #b2b2b2",
".C c #999999",
".D c #171c30",
".E c #3a4361",
".F c #4a5581",
".G c #56638d",
".H c #6c81ac",
".I c #8d9ad1",
".J c #b6bfe0",
".K c #c1c8e4",
".L c #c7d0ee",
".M c #97a5da",
".N c #606f9f",
".O c #4f5c87",
".P c #ebebeb",
".Q c #d4d4d4",
".R c #858585",
".S c #181d31",
".T c #343d59",
".U c #3e4868",
".V c #475281",
".W c #5d6893",
".X c #8188ae",
".Y c #818ab2",
".Z c #65709b",
".0 c #4c5a82",
".1 c #394468",
".2 c #2e2e2e",
".3 c #fafafa",
".4 c #d7d7d7",
".5 c #9f9f9f",
".6 c #686868",
".7 c #3c4159",
".8 c #3e4563",
"#` c #2e3754",
"#. c #2b3352",
"## c #273150",
"#a c #232c49",
"#b c #1b2238",
"#c c #888888",
"#d c #ededed",
"#e c #cfcfcf",
"#f c #838383",
"#g c #8a8a8a",
"#h c #a2a2a2",
"#i c #c8c8c8",
"#j c #f8f8f8",
"#k c #ececec",
"#l c #000000",
"#m c #000000",
"#n c #000000",
"#o c #000000",
"#p c #000000",
"#q c #000000",
"#r c #000000",
"#s c #000000",
"#t c #000000",
"#u c #000000",
"#v c #000000",
"#w c #000000",
"#x c #000000",
"#y c #000000",
"#z c #000000",
"#A c #000000",
"#B c #000000",
"#C c #000000",
"#D c #000000",
"#E c #000000",
"#F c #000000",
"#G c #000000",
"#H c #000000",
"#I c #000000",
"#J c #000000",
"#K c #000000",
"#L c #000000",
"#M c #000000",
"#N c #000000",
"#O c #000000",
"#P c #000000",
"#Q c #000000",
"#R c #000000",
"#S c #000000",
"#T c #000000",
"#U c #000000",
"#V c #000000",
"#W c #000000",
"#X c #000000",
"#Y c #000000",
"#Z c #000000",
"#0 c #000000",
"#1 c #000000",
"#2 c #000000",
"#3 c #000000",
"#4 c #000000",
"#5 c #000000",
"#6 c #000000",
"#7 c #000000",
"#8 c #000000",
"a` c #000000",
"a. c #000000",
"a# c #000000",
"aa c #000000",
"ab c #000000",
"ac c #000000",
"ad c #000000",
"ae c #000000",
"af c #000000",
"ag c #000000",
"ah c #000000",
"ai c #000000",
"aj c #000000",
"ak c #000000",
"al c #000000",
"am c #000000",
"an c #000000",
"ao c #000000",
"ap c #000000",
"aq c #000000",
"ar c #000000",
"as c #000000",
"at c #000000",
"au c #000000",
"av c #000000",
"aw c #000000",
"ax c #000000",
"ay c #000000",
"az c #000000",
"aA c #000000",
"aB c #000000",
"aC c #000000",
"aD c #000000",
"aE c #000000",
"aF c #000000",
"aG c #000000",
"aH c #000000",
"aI c #000000",
"aJ c #000000",
"aK c #000000",
"aL c #000000",
"aM c #000000",
"aN c #000000",
"aO c #000000",
"aP c #000000",
"aQ c #000000",
"aR c #000000",
"aS c #000000",
"aT c #000000",
"aU c #000000",
"aV c #000000",
"aW c #000000",
"aX c #000000",
"aY c #000000",
"aZ c #000000",
"a0 c #000000",
"a1 c #000000",
"a2 c #000000",
"a3 c #000000",
"a4 c #000000",
"a5 c #000000",
"a6 c #000000",
"a7 c #000000",
"a8 c #000000",
/* pixels */
"``````````````````````````````",
"```````.`#`a`b`c`d`e`f`g``````",
"```h`i`j`k`l`m`n`o`p`q`r`s````",
"`t`u`v`w`x`y`z`A`B`C`D`E`F`G``",
"`H`I`J`K`L`M`N`O`P`Q`R`S`T`U`V",
"`W`X`Y`Z`F`H`0`0`1`2`3`4`5`6`d",
"`7`8.`..`H````````.#`W.a.b.c.d",
".e.f.g.h.i`e.j`..k`a.l.m.n.o.d",
".p.q.r.s.t.u.v.w.v.x.y.y.z.A.B",
".C.D.E.F.G.H.I.J.K.L.M.N.O.p.P",
".Q.R.S.T.U.V.W.X.Y.Z.0.1.2`i``",
".3.4.5.6.7.8#`#.###a#b#c.Q`g``",
"```h#d#e`c.d.R#f#g#h#i.j`g````",
"```````t#j.j#k#d.k.3`g````````",
"``````````````````````````````"
};
