/* XPM */
static char *pointlight_xpm[] = {
/* width height num_colors chars_per_pixel */
"    15    15      256            2",
/* colors */
"`` c #ffffff",
"`. c #cbcbcb",
"`# c #f7c289",
"`a c #f9ce9f",
"`b c #f6bb6e",
"`c c #d9d9d9",
"`d c #f5b25f",
"`e c #fde2b1",
"`f c #ffeec6",
"`g c #fff2ce",
"`h c #fff1cf",
"`i c #fde5b9",
"`j c #f9c681",
"`k c #fefefe",
"`l c #f4a030",
"`m c #fedf93",
"`n c #ffe7a4",
"`o c #ffeaae",
"`p c #ffecb4",
"`q c #ffeeba",
"`r c #ffe7ac",
"`s c #f9ab19",
"`t c #bf9322",
"`u c #fdb710",
"`v c #ffdd81",
"`w c #ffeaac",
"`x c #ffeaa8",
"`y c #ffedaf",
"`z c #ffeeb5",
"`A c #ffecb0",
"`B c #ffefbf",
"`C c #fecd42",
"`D c #969696",
"`E c #f69b06",
"`F c #ffc525",
"`G c #ffd34e",
"`H c #ffdd6b",
"`I c #ffe995",
"`J c #ffeea4",
"`K c #ffeb97",
"`L c #ffe584",
"`M c #ffde64",
"`N c #ffdb5f",
"`O c #fab624",
"`P c #f9ac0e",
"`Q c #ffd763",
"`R c #ffd553",
"`S c #ffe282",
"`T c #ffefab",
"`U c #fff2b6",
"`V c #ffeea2",
"`W c #ffe888",
"`X c #ffe46d",
"`Y c #ffde5b",
"`Z c #fdcc3f",
"`0 c #f9a60a",
"`1 c #ffd354",
"`2 c #ffd554",
"`3 c #ffe281",
"`4 c #ffea95",
"`5 c #ffec9a",
"`6 c #ffec92",
"`7 c #ffeb87",
"`8 c #ffe980",
".` c #ffe45f",
".. c #ffdb54",
".# c #f59100",
".a c #ffca36",
".b c #ffde81",
".c c #ffde68",
".d c #ffe582",
".e c #ffe988",
".f c #ffeb88",
".g c #ffed84",
".h c #ffee81",
".i c #ffeb66",
".j c #ffe456",
".k c #fed235",
".l c #fbb318",
".m c #ffd047",
".n c #ffdc67",
".o c #ffdf64",
".p c #ffe56e",
".q c #ffe981",
".r c #ffef81",
".s c #fff582",
".t c #fff46e",
".u c #ffea55",
".v c #fedc48",
".w c #fcb81c",
".x c #ffd042",
".y c #ffde6a",
".z c #ffde58",
".A c #ffe561",
".B c #ffed69",
".C c #fff680",
".D c #fff970",
".E c #ffee5b",
".F c #ffe14c",
".G c #f4d181",
".H c #f69805",
".I c #fab923",
".J c #fed141",
".K c #ffdf5b",
".L c #ffe550",
".M c #ffec58",
".N c #fff05e",
".O c #ffea56",
".P c #f0c852",
".Q c #fdfdfd",
".R c #070705",
".S c #a1a1a1",
".T c #fbc42e",
".U c #fedf4d",
".V c #ffe34a",
".W c #edc33a",
".X c #0c0a09",
".Y c #ebeae9",
".Z c #e0e0df",
".0 c #090907",
".1 c #ecbd31",
".2 c #918e89",
".3 c #95928f",
".4 c #0b0a09",
".5 c #f8f8f7",
".6 c #171717",
".7 c #121210",
".8 c #5c5a56",
"#` c #868381",
"#. c #1a1a1a",
"## c #10100e",
"#a c #222222",
"#b c #bab8b5",
"#c c #000000",
"#d c #000000",
"#e c #000000",
"#f c #000000",
"#g c #000000",
"#h c #000000",
"#i c #000000",
"#j c #000000",
"#k c #000000",
"#l c #000000",
"#m c #000000",
"#n c #000000",
"#o c #000000",
"#p c #000000",
"#q c #000000",
"#r c #000000",
"#s c #000000",
"#t c #000000",
"#u c #000000",
"#v c #000000",
"#w c #000000",
"#x c #000000",
"#y c #000000",
"#z c #000000",
"#A c #000000",
"#B c #000000",
"#C c #000000",
"#D c #000000",
"#E c #000000",
"#F c #000000",
"#G c #000000",
"#H c #000000",
"#I c #000000",
"#J c #000000",
"#K c #000000",
"#L c #000000",
"#M c #000000",
"#N c #000000",
"#O c #000000",
"#P c #000000",
"#Q c #000000",
"#R c #000000",
"#S c #000000",
"#T c #000000",
"#U c #000000",
"#V c #000000",
"#W c #000000",
"#X c #000000",
"#Y c #000000",
"#Z c #000000",
"#0 c #000000",
"#1 c #000000",
"#2 c #000000",
"#3 c #000000",
"#4 c #000000",
"#5 c #000000",
"#6 c #000000",
"#7 c #000000",
"#8 c #000000",
"a` c #000000",
"a. c #000000",
"a# c #000000",
"aa c #000000",
"ab c #000000",
"ac c #000000",
"ad c #000000",
"ae c #000000",
"af c #000000",
"ag c #000000",
"ah c #000000",
"ai c #000000",
"aj c #000000",
"ak c #000000",
"al c #000000",
"am c #000000",
"an c #000000",
"ao c #000000",
"ap c #000000",
"aq c #000000",
"ar c #000000",
"as c #000000",
"at c #000000",
"au c #000000",
"av c #000000",
"aw c #000000",
"ax c #000000",
"ay c #000000",
"az c #000000",
"aA c #000000",
"aB c #000000",
"aC c #000000",
"aD c #000000",
"aE c #000000",
"aF c #000000",
"aG c #000000",
"aH c #000000",
"aI c #000000",
"aJ c #000000",
"aK c #000000",
"aL c #000000",
"aM c #000000",
"aN c #000000",
"aO c #000000",
"aP c #000000",
"aQ c #000000",
"aR c #000000",
"aS c #000000",
"aT c #000000",
"aU c #000000",
"aV c #000000",
"aW c #000000",
"aX c #000000",
"aY c #000000",
"aZ c #000000",
"a0 c #000000",
"a1 c #000000",
"a2 c #000000",
"a3 c #000000",
"a4 c #000000",
"a5 c #000000",
"a6 c #000000",
"a7 c #000000",
"a8 c #000000",
/* pixels */
"```````.`#`a`b`c``````````````",
"`````d`e`f`g`h`i`j`k``````````",
"```l`m`n`o`p`p`q`r`s``````````",
"`t`u`v`w`x`y`z`A`B`C`D````````",
"`E`F`G`H`I`J`K`L`M`N`O````````",
"`P`Q`R`S`T`U`V`W`X`Y`Z````````",
"`0`1`2`3`4`5`6`7`8.`..````````",
".#.a.b.c.d.e.f.g.h.i.j.k``````",
"``.l.m.n.o.p.q.r.s.t.u.v``````",
"````.w.x.y.z.A.B.C.D.E.F.G````",
"``````.H.I.J.K.L.M.N.O.P.Q.R``",
"````````````.S.T.U.V.W.X.Y.Z.0",
"``````````````````.1.2.3.4.5.6",
"````````````````````.7.8#`#.`k",
"``````````````````````###a#b``"
};
