/* XPM */
static char *spotlight_xpm[] = {
/* width height num_colors chars_per_pixel */
"    15    15      256            2",
/* colors */
"`` c #ffffff",
"`. c #cecece",
"`# c #faf5d8",
"`a c #faf6da",
"`b c #fbf6db",
"`c c #fbf7dd",
"`d c #fbf7de",
"`e c #fbf7df",
"`f c #fbf6dc",
"`g c #b8b7ae",
"`h c #f6f6f6",
"`i c #8c8a84",
"`j c #faefc6",
"`k c #fbf2d2",
"`l c #fcf6db",
"`m c #fdf8e0",
"`n c #fefbe5",
"`o c #fefce6",
"`p c #fefde8",
"`q c #fdf9e2",
"`r c #fcf6dc",
"`s c #fcf5e4",
"`t c #fcf3e0",
"`u c #a4a4a4",
"`v c #f6e7b5",
"`w c #f6e9bb",
"`x c #f8edc6",
"`y c #faf1cb",
"`z c #faf4d1",
"`A c #fcf7d7",
"`B c #fdf9d9",
"`C c #fdfadb",
"`D c #fcf8d9",
"`E c #fbf6dd",
"`F c #fcf8ef",
"`G c #faf4e6",
"`H c #f9efd9",
"`I c #fbf2d1",
"`J c #efdda5",
"`K c #f0dfaa",
"`L c #f2e4b2",
"`M c #f5eabb",
"`N c #f7eec4",
"`O c #f9f1c7",
"`P c #faf4cd",
"`Q c #faf4ca",
"`R c #fdfaf5",
"`S c #fbf8f1",
"`T c #faf5e9",
"`U c #f8efdc",
"`V c #f5e9ca",
"`W c #f5e9be",
"`X c #e7d193",
"`Y c #e8d39a",
"`Z c #ebdaa3",
"`0 c #efe0ad",
"`1 c #f1e5b5",
"`2 c #f4e8b8",
"`3 c #f4ebb9",
"`4 c #faf5e4",
"`5 c #fdfbf6",
"`6 c #fbf8f2",
"`7 c #faf5eb",
"`8 c #f7f0e0",
".` c #f4e8d0",
".. c #f0e1bd",
".# c #eedfae",
".a c #dcc083",
".b c #dec58a",
".c c #e2cc92",
".d c #e7d39a",
".e c #ead8a1",
".f c #ede0b0",
".g c #fdfdf5",
".h c #fcfbf3",
".i c #fbf9ef",
".j c #f9f5e8",
".k c #f6f0e0",
".l c #f2ead2",
".m c #ede1be",
".n c #e8d6a7",
".o c #e6d39a",
".p c #cfaf6a",
".q c #d0b16d",
".r c #d5b981",
".s c #eadcba",
".t c #f0e7b9",
".u c #ffffee",
".v c #fdfcea",
".w c #fcfae4",
".x c #f9f5e0",
".y c #f5f0d9",
".z c #f2e9d0",
".A c #ede1c0",
".B c #e6d6ab",
".C c #deca94",
".D c #dac485",
".E c #d2b992",
".F c #f1eade",
".G c #fdfcfb",
".H c #c29849",
".I c #eee3aa",
".J c #ffffdd",
".K c #fcfbda",
".L c #faf7d2",
".M c #f6f2cf",
".N c #f2eac7",
".O c #ece1b6",
".P c #e5d6a5",
".Q c #dcc992",
".R c #d2b981",
".S c #cdaf69",
".T c #c3a883",
".U c #ab8546",
".V c #faf7f0",
".W c #af843c",
".X c #eae191",
".Y c #ffffcc",
".Z c #fcfac1",
".0 c #f7f3bb",
".1 c #f1ecb2",
".2 c #eae1aa",
".3 c #e3d79f",
".4 c #dac98c",
".5 c #d1ba81",
".6 c #c3a862",
".7 c #bc9c57",
".8 c #b4976c",
"#` c #d5c6b2",
"#. c #fcf7e1",
"## c #915d24",
"#a c #e7d96e",
"#b c #ffffae",
"#c c #f9f8a2",
"#d c #f4ef9e",
"#e c #ece493",
"#f c #e3d88c",
"#g c #daca85",
"#h c #cdb867",
"#i c #c0a759",
"#j c #b3964f",
"#k c #a98644",
"#l c #814d27",
"#m c #85572d",
"#n c #865629",
"#o c #beaa89",
"#p c #dbc251",
"#q c #ffff89",
"#r c #f8f687",
"#s c #f0e981",
"#t c #e5dc6f",
"#u c #dacd64",
"#v c #cdbb5c",
"#w c #c0aa54",
"#x c #b29345",
"#y c #a3813d",
"#z c #946432",
"#A c #603b19",
"#B c #67421e",
"#C c #6b4720",
"#D c #704b22",
"#E c #804e23",
"#F c #ab8f3e",
"#G c #f7e264",
"#H c #eccf57",
"#I c #dfc554",
"#J c #d2b64c",
"#K c #c4ad4d",
"#L c #b3913d",
"#M c #a38135",
"#N c #93632e",
"#O c #814d23",
"#P c #4c2b0f",
"#Q c #553414",
"#R c #583513",
"#S c #5f3a18",
"#T c #5f3a16",
"#U c #63401a",
"#V c #623d19",
"#W c #e9b241",
"#X c #daa940",
"#Y c #ca9c3a",
"#Z c #b98c32",
"#0 c #a8812c",
"#1 c #956025",
"#2 c #844f21",
"#3 c #653a15",
"#4 c #3b1d07",
"#5 c #42220a",
"#6 c #48270b",
"#7 c #4d2b0d",
"#8 c #502d0d",
"a` c #52300f",
"a. c #4f2d0e",
"a# c #4f2c0d",
"aa c #b46d25",
"ab c #c38128",
"ac c #b16b24",
"ad c #9d5e1f",
"ae c #884a17",
"af c #683912",
"ag c #5c300d",
"ah c #524d2e",
"ai c #301502",
"aj c #321601",
"ak c #371903",
"al c #391a02",
"am c #3d1d05",
"an c #3a1b03",
"ao c #381a02",
"ap c #562a07",
"aq c #a25112",
"ar c #8d440f",
"as c #71360c",
"at c #602c08",
"au c #888884",
"av c #000000",
"aw c #000000",
"ax c #000000",
"ay c #000000",
"az c #000000",
"aA c #000000",
"aB c #000000",
"aC c #000000",
"aD c #000000",
"aE c #000000",
"aF c #000000",
"aG c #000000",
"aH c #000000",
"aI c #000000",
"aJ c #000000",
"aK c #000000",
"aL c #000000",
"aM c #000000",
"aN c #000000",
"aO c #000000",
"aP c #000000",
"aQ c #000000",
"aR c #000000",
"aS c #000000",
"aT c #000000",
"aU c #000000",
"aV c #000000",
"aW c #000000",
"aX c #000000",
"aY c #000000",
"aZ c #000000",
"a0 c #000000",
"a1 c #000000",
"a2 c #000000",
"a3 c #000000",
"a4 c #000000",
"a5 c #000000",
"a6 c #000000",
"a7 c #000000",
"a8 c #000000",
/* pixels */
"```.`#`a`b`c`d`e`e`d`f`b`g`h``",
"`i`j`k`l`m`n`o`p`o`n`q`r`s`t`u",
"`v`w`x`y`z`A`B`C`B`D`E`F`G`H`I",
"`J`K`L`M`N`O`P`Q`P`R`S`T`U`V`W",
"`X`Y`Z`0`1`2`3`4`5`6`7`8.`...#",
".a.b.c.d.e.f.g.h.i.j.k.l.m.n.o",
".p.q.r.s.t.u.v.w.x.y.z.A.B.C.D",
".E.F.G.H.I.J.K.L.M.N.O.P.Q.R.S",
".T.U.V.W.X.Y.Z.0.1.2.3.4.5.6.7",
".8#`#.###a#b#c#d#e#f#g#h#i#j#k",
"#l#m#n#o#p#q#r#s#t#u#v#w#x#y#z",
"#A#B#C#D#E#F#G#H#I#J#K#L#M#N#O",
"#P#Q#R#S#T#U#V#W#X#Y#Z#0#1#2#3",
"#4#5#6#7#8a`a.a#aaabacadaeafag",
"ahaiajakalamalanaoapaqarasatau"
};
