/* XPM */
static char *trail_xpm[] = {
/* width height num_colors chars_per_pixel */
"    15    15      256            2",
/* colors */
"`` c #ffffff",
"`. c #8b98b2",
"`# c #8191b2",
"`a c #8795b0",
"`b c #abafb6",
"`c c #6d85b3",
"`d c #3a60ac",
"`e c #6881a6",
"`f c #818faa",
"`g c #6e83a9",
"`h c #4267b0",
"`i c #5e81ab",
"`j c #b19da9",
"`k c #985c8e",
"`l c #84418a",
"`m c #81819a",
"`n c #5e81ae",
"`o c #8793ab",
"`p c #ac8a9f",
"`q c #a09dac",
"`r c #6f4b8b",
"`s c #959fb3",
"`t c #6b82ab",
"`u c #ae95a5",
"`v c #a36e91",
"`w c #a1668c",
"`x c #436ab2",
"`y c #9da3ad",
"`z c #8392af",
"`A c #3762b2",
"`B c #818da8",
"`C c #5981af",
"`D c #3a62af",
"`E c #6881aa",
"`F c #4268b2",
"`G c #8793aa",
"`H c #98a4b8",
"`I c #6781a4",
"`J c #4063a8",
"`K c #8190b3",
"`L c #365ba6",
"`M c #8390a7",
"`N c #9ca3b1",
"`O c #9aa1b1",
"`P c #6b81a8",
"`Q c #a5aab5",
"`R c #a3aab8",
"`S c #818eb2",
"`T c #6581b0",
"`U c #6881b1",
"`V c #818fb0",
"`W c #000000",
"`X c #000000",
"`Y c #000000",
"`Z c #000000",
"`0 c #000000",
"`1 c #000000",
"`2 c #000000",
"`3 c #000000",
"`4 c #000000",
"`5 c #000000",
"`6 c #000000",
"`7 c #000000",
"`8 c #000000",
".` c #000000",
".. c #000000",
".# c #000000",
".a c #000000",
".b c #000000",
".c c #000000",
".d c #000000",
".e c #000000",
".f c #000000",
".g c #000000",
".h c #000000",
".i c #000000",
".j c #000000",
".k c #000000",
".l c #000000",
".m c #000000",
".n c #000000",
".o c #000000",
".p c #000000",
".q c #000000",
".r c #000000",
".s c #000000",
".t c #000000",
".u c #000000",
".v c #000000",
".w c #000000",
".x c #000000",
".y c #000000",
".z c #000000",
".A c #000000",
".B c #000000",
".C c #000000",
".D c #000000",
".E c #000000",
".F c #000000",
".G c #000000",
".H c #000000",
".I c #000000",
".J c #000000",
".K c #000000",
".L c #000000",
".M c #000000",
".N c #000000",
".O c #000000",
".P c #000000",
".Q c #000000",
".R c #000000",
".S c #000000",
".T c #000000",
".U c #000000",
".V c #000000",
".W c #000000",
".X c #000000",
".Y c #000000",
".Z c #000000",
".0 c #000000",
".1 c #000000",
".2 c #000000",
".3 c #000000",
".4 c #000000",
".5 c #000000",
".6 c #000000",
".7 c #000000",
".8 c #000000",
"#` c #000000",
"#. c #000000",
"## c #000000",
"#a c #000000",
"#b c #000000",
"#c c #000000",
"#d c #000000",
"#e c #000000",
"#f c #000000",
"#g c #000000",
"#h c #000000",
"#i c #000000",
"#j c #000000",
"#k c #000000",
"#l c #000000",
"#m c #000000",
"#n c #000000",
"#o c #000000",
"#p c #000000",
"#q c #000000",
"#r c #000000",
"#s c #000000",
"#t c #000000",
"#u c #000000",
"#v c #000000",
"#w c #000000",
"#x c #000000",
"#y c #000000",
"#z c #000000",
"#A c #000000",
"#B c #000000",
"#C c #000000",
"#D c #000000",
"#E c #000000",
"#F c #000000",
"#G c #000000",
"#H c #000000",
"#I c #000000",
"#J c #000000",
"#K c #000000",
"#L c #000000",
"#M c #000000",
"#N c #000000",
"#O c #000000",
"#P c #000000",
"#Q c #000000",
"#R c #000000",
"#S c #000000",
"#T c #000000",
"#U c #000000",
"#V c #000000",
"#W c #000000",
"#X c #000000",
"#Y c #000000",
"#Z c #000000",
"#0 c #000000",
"#1 c #000000",
"#2 c #000000",
"#3 c #000000",
"#4 c #000000",
"#5 c #000000",
"#6 c #000000",
"#7 c #000000",
"#8 c #000000",
"a` c #000000",
"a. c #000000",
"a# c #000000",
"aa c #000000",
"ab c #000000",
"ac c #000000",
"ad c #000000",
"ae c #000000",
"af c #000000",
"ag c #000000",
"ah c #000000",
"ai c #000000",
"aj c #000000",
"ak c #000000",
"al c #000000",
"am c #000000",
"an c #000000",
"ao c #000000",
"ap c #000000",
"aq c #000000",
"ar c #000000",
"as c #000000",
"at c #000000",
"au c #000000",
"av c #000000",
"aw c #000000",
"ax c #000000",
"ay c #000000",
"az c #000000",
"aA c #000000",
"aB c #000000",
"aC c #000000",
"aD c #000000",
"aE c #000000",
"aF c #000000",
"aG c #000000",
"aH c #000000",
"aI c #000000",
"aJ c #000000",
"aK c #000000",
"aL c #000000",
"aM c #000000",
"aN c #000000",
"aO c #000000",
"aP c #000000",
"aQ c #000000",
"aR c #000000",
"aS c #000000",
"aT c #000000",
"aU c #000000",
"aV c #000000",
"aW c #000000",
"aX c #000000",
"aY c #000000",
"aZ c #000000",
"a0 c #000000",
"a1 c #000000",
"a2 c #000000",
"a3 c #000000",
"a4 c #000000",
"a5 c #000000",
"a6 c #000000",
"a7 c #000000",
"a8 c #000000",
/* pixels */
"``````````````````````````````",
"`````````````.`#`a`b``````````",
"`````````c`d`e`f`g`h`i````````",
"```j`k`l`m```````````n`o``````",
"```p`q`r`````````````s`t``````",
"```u`v`w`````````````x`y``````",
"`````````````````z`A`B````````",
"`````````````C`D`E````````````",
"```````````F`G````````````````",
"`````````H`I``````````````````",
"```````````J``````````````````",
"```````````K`L`M`N`O`P`Q``````",
"`````````````R`S`T`U`V````````",
"``````````````````````````````",
"``````````````````````````````"
};
