/* XPM */
static char *unchecked_xpm[] = {
/* width height num_colors chars_per_pixel */
"    15    15      256            2",
/* colors */
"`` c #ffffff",
"`. c #8e8f8f",
"`# c #f4f4f4",
"`a c #aeb3b9",
"`b c #afb4ba",
"`c c #b4b9bd",
"`d c #bbbec1",
"`e c #cbcfd5",
"`f c #d0d3d8",
"`g c #d5d8dc",
"`h c #dbdddf",
"`i c #c1c3c5",
"`j c #cdd1d6",
"`k c #d2d5da",
"`l c #d8dbde",
"`m c #dddfe1",
"`n c #e2e3e4",
"`o c #c6c7c8",
"`p c #cdd1d7",
"`q c #d0d4d9",
"`r c #d4d7db",
"`s c #e1e2e3",
"`t c #e5e6e6",
"`u c #e8e8e8",
"`v c #cccdcd",
"`w c #b2b7bc",
"`x c #dadcdf",
"`y c #e0e1e3",
"`z c #ececec",
"`A c #ededed",
"`B c #d4d5d6",
"`C c #b8bbbf",
"`D c #e4e5e5",
"`E c #eaeaea",
"`F c #efefef",
"`G c #f2f2f2",
"`H c #dcddde",
"`I c #bcbfc2",
"`J c #e3e4e5",
"`K c #e9e9e9",
"`L c #f5f5f5",
"`M c #e1e2e2",
"`N c #c2c4c6",
"`O c #f0f0f0",
"`P c #f6f6f6",
"`Q c #e6e6e6",
"`R c #cacbcc",
"`S c #d4d4d5",
"`T c #dbdbdc",
"`U c #e0e1e1",
"`V c #e6e7e7",
"`W c #eaebeb",
"`X c #ebecec",
"`Y c #ebebec",
"`Z c #e9e9ea",
"`0 c #000000",
"`1 c #000000",
"`2 c #000000",
"`3 c #000000",
"`4 c #000000",
"`5 c #000000",
"`6 c #000000",
"`7 c #000000",
"`8 c #000000",
".` c #000000",
".. c #000000",
".# c #000000",
".a c #000000",
".b c #000000",
".c c #000000",
".d c #000000",
".e c #000000",
".f c #000000",
".g c #000000",
".h c #000000",
".i c #000000",
".j c #000000",
".k c #000000",
".l c #000000",
".m c #000000",
".n c #000000",
".o c #000000",
".p c #000000",
".q c #000000",
".r c #000000",
".s c #000000",
".t c #000000",
".u c #000000",
".v c #000000",
".w c #000000",
".x c #000000",
".y c #000000",
".z c #000000",
".A c #000000",
".B c #000000",
".C c #000000",
".D c #000000",
".E c #000000",
".F c #000000",
".G c #000000",
".H c #000000",
".I c #000000",
".J c #000000",
".K c #000000",
".L c #000000",
".M c #000000",
".N c #000000",
".O c #000000",
".P c #000000",
".Q c #000000",
".R c #000000",
".S c #000000",
".T c #000000",
".U c #000000",
".V c #000000",
".W c #000000",
".X c #000000",
".Y c #000000",
".Z c #000000",
".0 c #000000",
".1 c #000000",
".2 c #000000",
".3 c #000000",
".4 c #000000",
".5 c #000000",
".6 c #000000",
".7 c #000000",
".8 c #000000",
"#` c #000000",
"#. c #000000",
"## c #000000",
"#a c #000000",
"#b c #000000",
"#c c #000000",
"#d c #000000",
"#e c #000000",
"#f c #000000",
"#g c #000000",
"#h c #000000",
"#i c #000000",
"#j c #000000",
"#k c #000000",
"#l c #000000",
"#m c #000000",
"#n c #000000",
"#o c #000000",
"#p c #000000",
"#q c #000000",
"#r c #000000",
"#s c #000000",
"#t c #000000",
"#u c #000000",
"#v c #000000",
"#w c #000000",
"#x c #000000",
"#y c #000000",
"#z c #000000",
"#A c #000000",
"#B c #000000",
"#C c #000000",
"#D c #000000",
"#E c #000000",
"#F c #000000",
"#G c #000000",
"#H c #000000",
"#I c #000000",
"#J c #000000",
"#K c #000000",
"#L c #000000",
"#M c #000000",
"#N c #000000",
"#O c #000000",
"#P c #000000",
"#Q c #000000",
"#R c #000000",
"#S c #000000",
"#T c #000000",
"#U c #000000",
"#V c #000000",
"#W c #000000",
"#X c #000000",
"#Y c #000000",
"#Z c #000000",
"#0 c #000000",
"#1 c #000000",
"#2 c #000000",
"#3 c #000000",
"#4 c #000000",
"#5 c #000000",
"#6 c #000000",
"#7 c #000000",
"#8 c #000000",
"a` c #000000",
"a. c #000000",
"a# c #000000",
"aa c #000000",
"ab c #000000",
"ac c #000000",
"ad c #000000",
"ae c #000000",
"af c #000000",
"ag c #000000",
"ah c #000000",
"ai c #000000",
"aj c #000000",
"ak c #000000",
"al c #000000",
"am c #000000",
"an c #000000",
"ao c #000000",
"ap c #000000",
"aq c #000000",
"ar c #000000",
"as c #000000",
"at c #000000",
"au c #000000",
"av c #000000",
"aw c #000000",
"ax c #000000",
"ay c #000000",
"az c #000000",
"aA c #000000",
"aB c #000000",
"aC c #000000",
"aD c #000000",
"aE c #000000",
"aF c #000000",
"aG c #000000",
"aH c #000000",
"aI c #000000",
"aJ c #000000",
"aK c #000000",
"aL c #000000",
"aM c #000000",
"aN c #000000",
"aO c #000000",
"aP c #000000",
"aQ c #000000",
"aR c #000000",
"aS c #000000",
"aT c #000000",
"aU c #000000",
"aV c #000000",
"aW c #000000",
"aX c #000000",
"aY c #000000",
"aZ c #000000",
"a0 c #000000",
"a1 c #000000",
"a2 c #000000",
"a3 c #000000",
"a4 c #000000",
"a5 c #000000",
"a6 c #000000",
"a7 c #000000",
"a8 c #000000",
/* pixels */
"``````````````````````````````",
"```.`.`.`.`.`.`.`.`.`.`.`.`.``",
"```.`#`#`#`#`#`#`#`#`#`#`#`.``",
"```.`#`a`a`a`a`a`a`b`c`d`#`.``",
"```.`#`a`e`e`e`e`f`g`h`i`#`.``",
"```.`#`a`e`e`j`k`l`m`n`o`#`.``",
"```.`#`a`p`q`r`h`s`t`u`v`#`.``",
"```.`#`w`g`x`y`u`z`A`A`B`#`.``",
"```.`#`C`m`D`E`F`G`G`G`H`#`.``",
"```.`#`I`J`K`A`G`#`L`#`M`#`.``",
"```.`#`N`K`A`O`#`P`P`P`Q`#`.``",
"```.`#`R`S`T`U`V`W`X`Y`Z`#`.``",
"```.`#`#`#`#`#`#`#`#`#`#`#`.``",
"```.`.`.`.`.`.`.`.`.`.`.`.`.``",
"``````````````````````````````"
};
